<svg xmlns="http://www.w3.org/2000/svg" width="694.372" height="798.485" viewBox="0 0 694.372 798.485">
  <g id="グループ_29029" data-name="グループ 29029" transform="translate(-2571.369 -457.319)">
    <g id="ferris_wheel" data-name="ferris wheel" transform="translate(-10.793)">
      <path id="パス_109621" data-name="パス 109621" d="M2788.352,1255.8l134.232-437.456L3056.26,1255.8H3072.3l-149.686-493.45L2772.3,1255.8Z" transform="translate(4.448)"/>
      <g id="グループ_29112" data-name="グループ 29112">
        <g id="グループ_29020" data-name="グループ 29020" transform="translate(0.005)">
          <path id="パス_109622" data-name="パス 109622" d="M2945.185,913.118a92.772,92.772,0,1,1,92.771-92.771A92.876,92.876,0,0,1,2945.185,913.118Zm0-180.352a87.58,87.58,0,1,0,87.579,87.581A87.681,87.681,0,0,0,2945.185,732.767Z" transform="translate(-15.842 -15.842)"/>
          <path id="パス_109623" data-name="パス 109623" d="M2950.247,1022.408c-108.627,0-197-88.374-197-197s88.373-197,197-197,197,88.374,197,197S3058.872,1022.408,2950.247,1022.408Zm0-385.971c-104.2,0-188.973,84.772-188.973,188.972s84.772,188.972,188.973,188.972,188.971-84.772,188.971-188.972S3054.446,636.437,2950.247,636.437Z" transform="translate(-20.904 -20.904)"/>
          <path id="パス_109624" data-name="パス 109624" d="M2929.343,1151.691A347.185,347.185,0,1,1,3174.841,1050,344.917,344.917,0,0,1,2929.343,1151.691Zm0-687.2c-187.483,0-340.012,152.528-340.012,340.011s152.529,340.011,340.012,340.011,340.011-152.528,340.011-340.011S3116.826,464.494,2929.343,464.494Z"/>
          <g id="グループ_29017" data-name="グループ 29017">
            <path id="パス_109625" data-name="パス 109625" d="M3271.078,803.107l-328.01-4.147L3176.14,568.12a4.38,4.38,0,0,0-6.14-6.248L2935.127,790.879l1.578-328.035a4.38,4.38,0,0,0-8.76-.077L2923.8,790.78,2692.958,557.709a4.38,4.38,0,0,0-6.249,6.139l229.008,234.873-328.056-1.578a4.38,4.38,0,0,0-.056,8.76l328.013,4.147-233.072,230.84a4.381,4.381,0,0,0,3.085,7.493,4.346,4.346,0,0,0,3.055-1.244L2923.558,818.13l-1.577,328.036a4.393,4.393,0,0,0,4.362,4.4h.018a4.4,4.4,0,0,0,4.38-4.325l4.148-328.013L3165.728,1051.3a4.38,4.38,0,0,0,6.248-6.14L2942.968,810.289l328.056,1.578a4.38,4.38,0,0,0,.054-8.76Z"/>
          </g>
          <g id="グループ_29018" data-name="グループ 29018">
            <path id="パス_109626" data-name="パス 109626" d="M3248.325,802.632c-.009-1.47-.026-2.94-.062-4.4a316.931,316.931,0,0,0-4.571-48.114q-.348-2.073-.748-4.135c-.517-2.842-1.087-5.666-1.693-8.482-.285-1.337-.579-2.673-.891-4.01a315.186,315.186,0,0,0-12.973-42.705c-.481-1.274-.98-2.54-1.488-3.8-.829-2.094-1.675-4.161-2.548-6.228q-.857-2.031-1.738-4.045a317.566,317.566,0,0,0-22.551-42.34c-.731-1.168-1.47-2.326-2.237-3.484q-2.2-3.422-4.535-6.781c-.784-1.149-1.586-2.3-2.4-3.439a320,320,0,0,0-29.1-35.444c-.926-.989-1.871-1.969-2.824-2.94q-1.791-1.859-3.635-3.68c-1.07-1.069-2.139-2.129-3.226-3.163a319.768,319.768,0,0,0-38.571-31.933q-1.725-1.216-3.466-2.406c-2.032-1.4-4.081-2.762-6.148-4.108q-1.737-1.136-3.5-2.245a318.184,318.184,0,0,0-41.458-22.141q-1.938-.857-3.885-1.684-2.565-1.1-5.141-2.139c-1.336-.543-2.673-1.078-4.018-1.6a314.234,314.234,0,0,0-45.486-13.908c-1.345-.3-2.69-.6-4.045-.873-2.958-.642-5.925-1.221-8.919-1.765-1.327-.24-2.664-.472-4-.694a317.54,317.54,0,0,0-45.878-4.34c-1.4-.035-2.8-.062-4.2-.071-1.016-.009-2.032-.018-3.048-.018q-1.952,0-3.9.027c-1.39.018-2.789.036-4.179.08a316.437,316.437,0,0,0-45.236,4.357c-1.319.214-2.629.446-3.938.686q-4.464.8-8.875,1.747c-1.363.285-2.717.579-4.072.891a314.773,314.773,0,0,0-43.463,13.142c-1.247.472-2.485.953-3.724,1.452q-3.315,1.309-6.6,2.7c-1.337.57-2.664,1.14-3.992,1.728a318.181,318.181,0,0,0-42.9,22.926c-1.167.739-2.334,1.5-3.492,2.254-1.791,1.167-3.564,2.361-5.32,3.564q-1.75,1.189-3.474,2.415a319.017,319.017,0,0,0-36.041,29.5c-.972.909-1.934,1.826-2.887,2.762-1.328,1.283-2.638,2.575-3.939,3.893q-1.577,1.578-3.118,3.181a320.445,320.445,0,0,0-31.087,37.4q-1.162,1.631-2.29,3.269-1.871,2.687-3.671,5.418c-.793,1.194-1.577,2.4-2.361,3.617a317.929,317.929,0,0,0-22.872,42.3c-.552,1.238-1.1,2.477-1.63,3.724-.7,1.6-1.381,3.217-2.05,4.838-.561,1.364-1.113,2.727-1.657,4.108a315.644,315.644,0,0,0-14.363,46.466c-.3,1.318-.588,2.637-.864,3.965q-.9,4.143-1.666,8.339-.375,2.005-.722,4.037a319.293,319.293,0,0,0-4.509,46.287c-.035,1.363-.062,2.735-.071,4.1-.018,1.265-.027,2.53-.027,3.8,0,1.3.009,2.6.027,3.894.009,1.372.036,2.735.08,4.107a317.177,317.177,0,0,0,4.527,46.306q.333,2.031.721,4.036.642,3.515,1.381,7c.277,1.363.571,2.727.883,4.081a314.866,314.866,0,0,0,13.32,44.265c.472,1.256.962,2.5,1.461,3.742.847,2.138,1.711,4.259,2.611,6.371q.828,1.977,1.693,3.938A318.459,318.459,0,0,0,2660.8,976.5c.784,1.212,1.568,2.423,2.361,3.617,1.2,1.818,2.415,3.618,3.653,5.4.757,1.1,1.524,2.183,2.29,3.27a320.258,320.258,0,0,0,26.953,33.047c.855.927,1.719,1.835,2.575,2.744q3.541,3.7,7.19,7.28c.989.989,2,1.96,3,2.922a320.4,320.4,0,0,0,35.426,29.376c1.069.767,2.147,1.524,3.225,2.281q4.21,2.928,8.518,5.721c1.123.739,2.246,1.461,3.386,2.174a319.092,319.092,0,0,0,36.656,19.949c1.123.517,2.254,1.034,3.386,1.533q4.717,2.124,9.524,4.08c1.319.544,2.656,1.078,3.992,1.6a315.941,315.941,0,0,0,45.691,14.087c1.336.3,2.673.606,4.018.882q4.2.909,8.438,1.684c1.336.249,2.682.49,4.027.722a318.4,318.4,0,0,0,44.595,4.464c1.336.044,2.673.08,4.009.1,1.871.035,3.751.053,5.631.053.669,0,1.328,0,2-.009,1.435-.009,2.86-.027,4.286-.062a316.94,316.94,0,0,0,48.114-4.571c1.381-.241,2.753-.481,4.125-.748,2.8-.508,5.578-1.07,8.34-1.667,1.319-.276,2.637-.57,3.947-.864a314.591,314.591,0,0,0,41.351-12.438c1.221-.455,2.433-.918,3.645-1.4q4.878-1.9,9.685-3.974c1.274-.535,2.539-1.1,3.8-1.657a317.52,317.52,0,0,0,39.89-21.268q1.712-1.07,3.4-2.166,4.4-2.834,8.687-5.818c1.1-.757,2.192-1.523,3.288-2.308a320.846,320.846,0,0,0,35.319-29.135c1.016-.98,2.032-1.951,3.03-2.941.632-.614,1.265-1.238,1.889-1.862q1.644-1.617,3.261-3.287a320.59,320.59,0,0,0,32.753-39.338c.811-1.15,1.622-2.308,2.415-3.475q2.231-3.247,4.374-6.549c.749-1.14,1.479-2.29,2.21-3.439a318.658,318.658,0,0,0,21.366-39.748q.829-1.871,1.649-3.76,1.3-2.953,2.521-5.96c.552-1.355,1.1-2.709,1.639-4.081a314.79,314.79,0,0,0,15.085-50.244q.509-2.3.945-4.606c.231-1.167.454-2.335.668-3.511q.387-2.031.73-4.081a318,318,0,0,0,4.509-47.659c.036-1.461.053-2.932.062-4.4.009-.65.009-1.309.009-1.96C3248.334,803.879,3248.334,803.256,3248.325,802.632Zm-58.4,174.636c-.169.267-.347.526-.534.793a315.075,315.075,0,0,1-84.85,85.385c-1.132.775-2.264,1.532-3.4,2.281a312.207,312.207,0,0,1-51.812,27.594q-1.884.787-3.786,1.55a310.092,310.092,0,0,1-53.665,16.1c-.588.124-1.176.24-1.765.356a313.257,313.257,0,0,1-60.766,5.925c-.57,0-1.14,0-1.71-.009-.259,0-.517,0-.776-.009a311.72,311.72,0,0,1-57.781-5.809c-.65-.125-1.3-.258-1.96-.392a309.847,309.847,0,0,1-59.216-18.328c-1.265-.526-2.513-1.069-3.769-1.613a312.194,312.194,0,0,1-47.312-25.848q-1.7-1.109-3.368-2.263a314.325,314.325,0,0,1-45.691-37.974c-.962-.962-1.915-1.934-2.851-2.905a313.565,313.565,0,0,1-65.2-99.587.065.065,0,0,1-.018-.053,309.16,309.16,0,0,1-17.178-57.22c-.027-.125-.054-.25-.072-.366a312.937,312.937,0,0,1-5.854-59.813v-1.033a312.575,312.575,0,0,1,5.828-59.786c.124-.651.258-1.3.392-1.96,20.929-103.3,92.949-188.295,188.437-227.384.072-.026.152-.062.232-.089a309.726,309.726,0,0,1,56.356-16.982c.81-.169,1.621-.321,2.432-.481a314.631,314.631,0,0,1,118.2.009h.009c.8.16,1.6.311,2.406.472a311.137,311.137,0,0,1,111.446,46.234,3.972,3.972,0,0,1,.356.24,315.06,315.06,0,0,1,86.383,86.142c.249.357.49.722.722,1.087a310.779,310.779,0,0,1,46.029,110.431c.124.6.24,1.185.356,1.773a312.748,312.748,0,0,1-46.243,233.531Z"/>
            <path id="パス_109627" data-name="パス 109627" d="M3258.866,904.678l-16.51-38.562-.936-2.174,1.6-1.337,29.109-24.217-23.808-31.925-1.434-1.915,1.434-1.916,23.8-31.916-29.18-24.734-4.3-3.644,2.6-4.838L3259,704.417l-33.1-17.437-3.627-1.915,1.079-4.313,9.7-38.812-36.229-11.057-4.98-1.524.445-5.257,3.244-38.384-37.565-3.439-3.074-.285-.561-3.4-6.683-40.647-38.58,3.145-4.749.392-1.4-4.5-11.414-36.611-37.431,10.541-3.35.944-1.791-3.083L3029.006,474.5l-33.618,17.9-5.239,2.788-3.68-4.553-23.727-29.349L2932.4,485.534l-3.475,2.78-3.475-2.771-30.374-24.262-22.979,29.385-3.538,4.526-5.337-2.779-34.464-17.936L2811.958,507.9l-1.969,3.912-4.633-1.212L2766.3,500.4l-11.333,37.1-1.185,3.894-4.135-.33-39.587-3.127-2.815,37.8-.25,3.341-3.689.552-41.048,6.166,4.553,37.689.481,4-4.152,1.417L2624.714,642l11.566,36.557.962,3.048-3.012,1.79-35.372,21.09,18.488,33.449,2.664,4.82-4.33,3.519-30.036,24.467,24.734,29.956,3.172,3.849-3.172,3.849-24.734,29.964,30.062,24.485,3.538,2.878-2.157,4.125-18.247,34.856,33.911,17.232,3.814,1.942-1.2,4.429-10.594,38.812,38.393,13,4.134,1.4-.481,4-4.571,37.938,36.389,1.123,6.415.2.775,7.084,4.295,39.355,37.359-4.776,6.665-.855,1.853,6.576,10.327,36.709,33.1-13.053,5.862-2.308,3.662,6.388,19.879,34.714,33.822-18.141,4.936-2.646,3.5,4.33,24.03,29.688,28.6-24.4,3.6-3.074,4.027,3.118,31.39,24.289,25.135-29.67,3.627-4.277,4.713,2.61,32.869,18.23,16.074-32.931,2.931-6,6.754,2.023,36.7,10.995,10.389-36.086,1.9-6.611,6.789.793,37.093,4.357,4.544-38.741.187-1.559,1.7-.3,41.369-7.333-2.94-38.767-.393-5.123,4.767-1.426,36.175-10.8-10.95-36.148-1.141-3.778,3.662-2.182Zm-41,21.331,2.655,8.758,9.258,30.6-30.624,9.151-9.222,2.753c-.169.267-.347.526-.534.793l.757,9.917,2.513,33.083-35.266,6.255-7.387,1.309-.793,6.781-3.858,32.833-31.461-3.7-9.355-1.095c-1.132.775-2.264,1.532-3.4,2.281l-2.62,9.106-8.812,30.579-31.078-9.311-9.3-2.78q-1.884.787-3.786,1.55l-4.037,8.26-13.6,27.835-27.755-15.4-8.277-4.6c-.588.124-1.176.24-1.765.356l-6.37,7.52L2962.35,1144.1l-26.721-20.68-7.992-6.175c-.259,0-.517,0-.776-.009l-7.154,6.1-24.236,20.689-20.359-25.153-6.032-7.449c-.65-.125-1.3-.258-1.96-.392l-8.491,4.553-28.78,15.432-16.911-29.519-5.034-8.794c-1.265-.526-2.513-1.069-3.769-1.613l-8.1,3.19-27.942,11.013-8.714-30.962-2.557-9.089q-1.7-1.109-3.368-2.263l-9.2,1.176-31.773,4.063-3.653-33.439-1.061-9.774c-.962-.962-1.915-1.934-2.851-2.905l-8.856-.267-30.811-.954,3.858-32.093,1.1-9.106-9.4-3.181-32.789-11.111,9.044-33.145,2.655-9.73.009-.036-.027-.017-8.4-4.268-28.824-14.648,15.5-29.617,4.544-8.687c-.027-.125-.054-.25-.072-.366l-7.457-6.067-25.563-20.823,21.036-25.483,6.13-7.44v-1.033l-6.139-7.431-21.027-25.483,25.536-20.8,7.458-6.068c.124-.651.258-1.3.392-1.96l-4.6-8.313-15.762-28.512,30.125-17.954,7.859-4.687-2.522-7.983-9.854-31.149,32.726-11.156,9.418-3.207-1.1-9.1-3.876-32.166,34.963-5.239,9.311-1.4.633-8.437,2.4-32.165,33.645,2.664,9.542.757,2.744-8.99,9.65-31.613,33.252,8.687,9.881,2.575.161.045.071-.134,4.2-8.366,14.239-28.352,29.224,15.21,8.688,4.526c.81-.169,1.621-.321,2.432-.481l5.765-7.369,19.486-24.921,25.75,20.564,7.654,6.112,7.671-6.13,25.741-20.564,20.137,24.9,6,7.413h.009c.8.16,1.6.311,2.406.472l8.553-4.553,28.557-15.21,16.929,29.118,4.544,7.814,8.5-2.4,31.773-8.946,9.685,31.087,2.905,9.32a3.972,3.972,0,0,1,.356.24l9.855-.8,32.878-2.691,5.693,34.624,1.488,9.026,8.2.757,31.854,2.923-2.753,32.521-.829,9.783c.249.357.49.722.722,1.087l9.275,2.834,30.784,9.382-8.233,32.958-2.441,9.748,8.215,4.33,27.977,14.746-15,27.959-4.544,8.474c.124.6.24,1.185.356,1.773l7.52,6.38,24.788,21.018-20.217,27.1-4.713,6.317,4.713,6.317,20.208,27.1-24.717,20.564-5.577,4.643,3.234,7.555,14.078,32.86-29.163,17.384Z"/>
          </g>
          <path id="パス_109628" data-name="パス 109628" d="M2930.109,853.717c-39.52,0-60-37.768-46.479-68.364,13.039-32.149,55.139-40.942,79.832-15.8C2996.385,803.074,2972.01,853.717,2930.109,853.717Z"/>
          <path id="パス_109637" data-name="パス 109637" d="M2932.083,841.245c-27.731,0-42.106-26.5-32.615-47.973,9.15-22.56,38.693-28.73,56.019-11.086C2978.59,805.707,2961.486,841.245,2932.083,841.245Z" transform="translate(-2.265 -2.252)" fill="#fff"/>
        </g>
      </g>
    </g>
  </g>
</svg>
